<mxfile host="app.diagrams.net" modified="2023-10-08T19:49:03.486Z" agent="Mozilla/5.0 (Windows NT 10.0; Win64; x64) AppleWebKit/537.36 (KHTML, like Gecko) Chrome/117.0.0.0 Safari/537.36" version="22.0.4" etag="S1o7n_W1zXfNs7pTN8mf" type="github">
  <diagram name="Page-1" id="raGFw-_2TjUtdDoqs34E">
    <mxGraphModel>
      <root>
        <mxCell id="0" />
        <mxCell id="1" parent="0" />
      </root>
    </mxGraphModel>
  </diagram>
</mxfile>
